<svg xmlns="http://www.w3.org/2000/svg" width="24" height="24" viewBox="0 0 24 24" fill="none" stroke="#4f46e5" stroke-width="2" stroke-linecap="round" stroke-linejoin="round">
  <circle cx="13.5" cy="6.5" r="2.5"/>
  <path d="M17 4c0 1-1 2-2 2s-2-1-2-2 1-2 2-2 2 1 2 2z"/>
  <path d="M19 8c0 1-1 2-2 2s-2-1-2-2 1-2 2-2 2 1 2 2z"/>
  <path d="M15 10c0 1-1 2-2 2s-2-1-2-2 1-2 2-2 2 1 2 2z"/>
  <path d="M11 12c0 1-1 2-2 2s-2-1-2-2 1-2 2-2 2 1 2 2z"/>
  <path d="M7 14c0 1-1 2-2 2s-2-1-2-2 1-2 2-2 2 1 2 2z"/>
  <path d="M5.13 17.63a9 9 0 0 0 13.63-1.13"/>
</svg>